# xmcd
#
# Track frame offsets:
#	150
#	17730
#	41787
#	74777
#	94952
#	117917
#	140380
#	163167
#	177982
#	201129
#	221785
#	241421
#	256715
#	292267
#
# Disc length: 4172 seconds
#
# Revision: 0
# Processed by: cddbd v1.5.2PL0 Copyright (c) Steve Scherf et al.
# Submitted via: audiograbber 1.83.01
#
DISCID=df104a0e
DTITLE=Various Artist - Mustique Blues Festival 2008
DYEAR=2008
DGENRE=Blues
TTITLE0=Zach Prather - Nothing Left To Say
TTITLE1=Papa George - Flooding Down In Texas
TTITLE2=Dana Gillespie - Twenty Four Seven
TTITLE3=Ronnie Jones - Big Boss Man
TTITLE4=Felix Dennis - I Just Want To Make Love To You
TTITLE5=Julien Brunetaud - Hootie Blues
TTITLE6=Carl Gustave - Too Hard
TTITLE7=Dino Baptiste - C'est La Vie
TTITLE8=Zach Prather - Wound Up Tight
TTITLE9=Papa George - Nite With You
TTITLE10=Dana Gillespie - It's Gonna Be A Long Night
TTITLE11=Steve Simpson - Barefootin'
TTITLE12=Ronnie Jones - Stormy Monday Blues
TTITLE13=Julien Brunetaud - I Ain't Going To Be Your Monkey Man
EXTD=
EXTT0=
EXTT1=
EXTT2=
EXTT3=
EXTT4=
EXTT5=
EXTT6=
EXTT7=
EXTT8=
EXTT9=
EXTT10=
EXTT11=
EXTT12=
EXTT13=
PLAYORDER=
